<svg width="34" height="65" viewBox="0 0 34 65" fill="none" xmlns="http://www.w3.org/2000/svg">
<path d="M14.2148 0C11.1317 0 8.57843 2.265 8.57843 5V9.22C8.41377 9.70337 8.41377 10.2191 8.57843 10.7025V18.595L6.37744 19.92C2.46018 22.2375 0.123921 26.21 0.123921 30.39V31.7175C-0.0413069 32.2017 -0.0413069 32.7183 0.123921 33.2025V49.22C-0.0407386 49.7034 -0.0407386 50.2191 0.123921 50.7025V65H33.942V50.4675C34.019 50.1326 34.019 49.7874 33.942 49.4525V32.97C34.0193 32.6343 34.0193 32.2882 33.942 31.9525V30.39C33.942 26.21 31.6085 22.2375 27.6885 19.9225L25.4875 18.595V10.47C25.5648 10.1343 25.5648 9.7882 25.4875 9.4525V5C25.4875 2.265 22.9342 0 19.8511 0H14.2148ZM14.2148 5H19.8511V7.5H14.2148V5ZM14.2148 12.5H19.8511V21.3275L21.0855 22.11L24.518 24.14C26.7528 25.46 28.0745 27.6375 28.2183 30H5.84481C5.98853 27.6375 7.31026 25.46 9.54507 24.14L12.9804 22.11L14.212 21.3275L14.2148 12.5ZM5.76026 35H28.3056V47.5H5.76026V35ZM5.76026 52.5H28.3056V60H5.76026V52.5Z" fill="#C59407"/>
</svg>
