<svg width="35" height="25" viewBox="0 0 35 25" fill="none" xmlns="http://www.w3.org/2000/svg">
<path d="M0.416626 2.25008C0.416626 1.797 0.596611 1.36248 0.916985 1.04211C1.23736 0.721733 1.67188 0.541748 2.12496 0.541748H32.875C33.328 0.541748 33.7626 0.721733 34.0829 1.04211C34.4033 1.36248 34.5833 1.797 34.5833 2.25008C34.5833 2.70316 34.4033 3.13768 34.0829 3.45806C33.7626 3.77843 33.328 3.95841 32.875 3.95841H2.12496C1.67188 3.95841 1.23736 3.77843 0.916985 3.45806C0.596611 3.13768 0.416626 2.70316 0.416626 2.25008ZM0.416626 12.5547C0.416626 12.1017 0.596611 11.6671 0.916985 11.3468C1.23736 11.0264 1.67188 10.8464 2.12496 10.8464H32.875C33.328 10.8464 33.7626 11.0264 34.0829 11.3468C34.4033 11.6671 34.5833 12.1017 34.5833 12.5547C34.5833 13.0078 34.4033 13.4423 34.0829 13.7627C33.7626 14.0831 33.328 14.2631 32.875 14.2631H2.12496C1.67188 14.2631 1.23736 14.0831 0.916985 13.7627C0.596611 13.4423 0.416626 13.0078 0.416626 12.5547ZM2.12496 21.1511C1.67188 21.1511 1.23736 21.3311 0.916985 21.6514C0.596611 21.9718 0.416626 22.4063 0.416626 22.8594C0.416626 23.3125 0.596611 23.747 0.916985 24.0674C1.23736 24.3878 1.67188 24.5677 2.12496 24.5677H32.875C33.328 24.5677 33.7626 24.3878 34.0829 24.0674C34.4033 23.747 34.5833 23.3125 34.5833 22.8594C34.5833 22.4063 34.4033 21.9718 34.0829 21.6514C33.7626 21.3311 33.328 21.1511 32.875 21.1511H2.12496Z" fill="black"/>
</svg>
