<svg width="60" height="65" viewBox="0 0 60 65" fill="none" xmlns="http://www.w3.org/2000/svg">
<path d="M44.1702 0H15.3191C12.9362 0 10.9362 0.888672 9.31915 2.66602C6.42553 5.9668 4.14894 10.2409 2.48936 15.4883C0.829787 20.7357 0 26.3216 0 32.2461C0 39.1016 0.93617 45.3857 2.80851 51.0986C4.68085 56.8115 7.10638 60.8105 10.0851 63.0957C11.3617 64.3652 13.1064 65 15.3191 65H44.4255C47.0638 65 49.1489 64.0267 50.6809 62.0801C56.8936 54.7168 60 44.9414 60 32.7539C60 19.6354 56.7234 9.52148 50.1702 2.41211C48.5532 0.804036 46.5532 0 44.1702 0ZM54.2553 27.041H43.6596C43.4043 23.0632 43.0213 19.4661 42.5106 16.25H51.8298C52.8511 18.8737 53.6596 22.4707 54.2553 27.041ZM22.9787 48.75C22.383 45.7031 22.0851 42.1061 22.0851 37.959H38.1702C38 41.0905 37.7447 44.6875 37.4043 48.75H22.9787ZM36 54.209C35.5745 56.071 34.8511 57.8483 33.8298 59.541H25.6596C25.3191 59.0332 24.5957 57.2559 23.4894 54.209H36ZM8.17021 49.8926C7.06383 45.9147 6.25532 41.9368 5.74468 37.959H16.3404C16.3404 41.5983 16.6383 45.1953 17.234 48.75H8.17021V49.8926ZM36.766 16.25C37.1915 18.5352 37.5745 22.1322 37.9149 27.041H22.0851C22.4255 22.1322 22.8085 18.5352 23.234 16.25H36.766ZM24.2553 10.791C24.5106 9.86003 25.1489 8.08268 26.1702 5.45898H33.8298C34.6809 7.06706 35.3192 8.8444 35.7447 10.791H24.2553ZM32.6809 32.5C32.6809 33.1771 32.4043 33.7907 31.8511 34.3408C31.2979 34.891 30.6809 35.166 30 35.166C29.3191 35.166 28.7021 34.891 28.1489 34.3408C27.5957 33.7907 27.3191 33.1771 27.3191 32.5C27.3191 31.8229 27.5957 31.2093 28.1489 30.6592C28.7021 30.109 29.3191 29.834 30 29.834C30.6809 29.834 31.2979 30.109 31.8511 30.6592C32.4043 31.2093 32.6809 31.8229 32.6809 32.5ZM16.3404 27.041H5.74468C6 22.9785 6.80851 19.1276 8.17021 15.4883V16.25H17.4894C16.9787 19.4661 16.5957 23.0632 16.3404 27.041ZM43.6596 37.959H54.2553C54 41.1751 53.2766 44.7721 52.0851 48.75H42.766C42.8511 47.3112 43 45.3857 43.2128 42.9736C43.4255 40.5615 43.5745 38.89 43.6596 37.959ZM46.0851 6.2207C47.617 7.74414 48.6809 9.26758 49.2766 10.791H41.1064C40.4255 8.25195 39.9149 6.47461 39.5745 5.45898H44.1702C45.1915 5.45898 45.8298 5.71289 46.0851 6.2207ZM15.3191 5.45898H20.1702C20 5.9668 19.7447 6.81315 19.4043 7.99805C19.0638 9.18294 18.766 10.1139 18.5106 10.791H10.0851C11.2766 8.8444 12.2979 7.32096 13.1489 6.2207C13.6596 5.71289 14.383 5.45898 15.3191 5.45898ZM13.6596 59.0332C12.5532 58.2715 11.3617 56.6634 10.0851 54.209H18.5106C18.766 54.8861 19.0638 55.8171 19.4043 57.002C19.7447 58.1868 20 59.0332 20.1702 59.541H15.3191C14.5532 59.541 14 59.3717 13.6596 59.0332ZM44.4255 59.541H40.0851C40.2553 59.0332 40.5106 58.1868 40.8511 57.002C41.1915 55.8171 41.4894 54.8861 41.7447 54.209H49.6596C48.8936 55.5632 47.8723 57.002 46.5957 58.5254C46.1702 59.2025 45.4468 59.541 44.4255 59.541Z" fill="#C59407"/>
</svg>
