<svg width="79" height="61" viewBox="0 0 79 61" fill="none" xmlns="http://www.w3.org/2000/svg">
<path d="M34.3125 0.375007C31.4516 0.375007 29.125 2.7016 29.125 5.56251V15.9375H13.5625C9.27244 15.9375 5.78125 19.4287 5.78125 23.7188V31.0331C4.14172 32.6013 2.83683 34.4854 1.94527 36.5716C1.05371 38.6579 0.59396 40.9031 0.59375 43.1719C0.59375 52.4679 8.15712 60.0313 17.4531 60.0313C26.7491 60.0313 34.3125 52.4679 34.3125 43.1719C34.3074 41.861 34.149 40.5553 33.8404 39.2813H45.1596C44.851 40.5553 44.6926 41.861 44.6875 43.1719C44.6875 52.4679 52.2509 60.0313 61.5469 60.0313C70.8429 60.0313 78.4062 52.4679 78.4062 43.1719C78.4062 38.4046 76.4091 34.1041 73.2188 31.0331V21.125C73.2188 18.2641 70.8922 15.9375 68.0312 15.9375H59.0439L51.7503 4.99448C50.8043 3.57203 49.5211 2.40579 48.0149 1.59976C46.5088 0.793733 44.8265 0.372974 43.1183 0.375007H34.3125ZM34.3125 5.56251H43.1183C44.8535 5.56251 46.4694 6.42623 47.4343 7.87094L52.8059 15.9375H34.3125V5.56251ZM13.5625 21.125H68.0312V27.6146C65.9778 26.754 63.7734 26.3114 61.5469 26.3125C58.7195 26.3154 55.9383 27.0296 53.4594 28.3894C50.9804 29.7492 48.8835 31.7109 47.3617 34.0938H31.6409C30.1189 31.7105 28.0215 29.7486 25.5421 28.3888C23.0627 27.029 20.281 26.3149 17.4531 26.3125C15.1551 26.3125 12.9659 26.7794 10.9688 27.6146V23.7188C10.9688 23.0309 11.242 22.3711 11.7284 21.8847C12.2149 21.3983 12.8746 21.125 13.5625 21.125ZM17.4531 31.5C17.9018 31.5 18.3298 31.583 18.7656 31.6297L18.6281 32.8669C20.0686 33.0238 21.4589 33.4872 22.7055 34.226L23.3409 33.1522C25.458 34.3876 27.1337 36.2566 28.1316 38.4954L26.9618 39.0141C27.5376 40.3214 27.8281 41.722 27.8281 43.1719V43.2367L29.1198 43.2082C29.107 45.6767 28.3045 48.0763 26.8295 50.0557L25.818 49.3113C24.9672 50.4707 23.8545 51.4641 22.6043 52.18L23.2242 53.259C21.4735 54.2859 19.4828 54.8326 17.4531 54.8438C17.0278 54.8438 16.6231 54.7608 16.2081 54.7167L16.3326 53.4872C14.8906 53.3358 13.4972 52.8796 12.2449 52.1488L11.6224 53.2227C9.49954 51.9985 7.81475 50.1386 6.80578 47.9055L7.97038 47.3867C7.38457 46.0813 7.07886 44.6676 7.07294 43.2367L7.08331 43.0292L5.78644 43.1018C5.80769 40.6221 6.62613 38.215 8.12081 36.2362L9.12459 36.9884C9.99136 35.8245 11.09 34.853 12.3512 34.1353L11.7469 33.0563C13.4818 32.049 15.4497 31.5126 17.4557 31.5H17.4531ZM61.5469 31.5C63.6323 31.5 65.5594 32.094 67.2557 33.0563L66.6488 34.1353C67.9016 34.8459 69.0169 35.829 69.8754 36.9884L70.8792 36.2362C72.3161 38.1659 73.198 40.5263 73.2136 43.107L71.9219 43.1719C71.9219 44.6399 71.6236 46.0561 71.0296 47.3867L72.1968 47.9055C71.1858 50.1398 69.4982 51.9998 67.3724 53.2227L66.7499 52.1488C65.4982 52.881 64.1045 53.3373 62.6622 53.4872L62.7893 54.7167C62.3743 54.7608 61.9723 54.8438 61.5469 54.8438C59.5172 54.8326 57.5265 54.2859 55.7758 53.259L56.3957 52.18C55.1369 51.4551 54.0425 50.4764 53.182 49.3061L52.1705 50.0505C50.6954 48.0712 49.8928 45.6715 49.8802 43.203L51.1719 43.1719C51.1719 41.722 51.4624 40.3214 52.0382 39.0115L50.8684 38.4954C51.8663 36.2566 53.542 34.3876 55.6591 33.1522L56.2945 34.226C57.5409 33.4868 58.9313 33.0234 60.3719 32.8669L60.2344 31.6323C60.6702 31.5804 61.0982 31.5 61.5469 31.5ZM17.4531 39.2813C16.4213 39.2813 15.4317 39.6912 14.702 40.4208C13.9724 41.1504 13.5625 42.14 13.5625 43.1719C13.5625 44.2037 13.9724 45.1933 14.702 45.923C15.4317 46.6526 16.4213 47.0625 17.4531 47.0625C18.485 47.0625 19.4746 46.6526 20.2042 45.923C20.9338 45.1933 21.3438 44.2037 21.3438 43.1719C21.3438 42.14 20.9338 41.1504 20.2042 40.4208C19.4746 39.6912 18.485 39.2813 17.4531 39.2813ZM61.5469 39.2813C60.515 39.2813 59.5254 39.6912 58.7958 40.4208C58.0662 41.1504 57.6562 42.14 57.6562 43.1719C57.6562 44.2037 58.0662 45.1933 58.7958 45.923C59.5254 46.6526 60.515 47.0625 61.5469 47.0625C62.5787 47.0625 63.5683 46.6526 64.298 45.923C65.0276 45.1933 65.4375 44.2037 65.4375 43.1719C65.4375 42.14 65.0276 41.1504 64.298 40.4208C63.5683 39.6912 62.5787 39.2813 61.5469 39.2813Z" fill="#C59407"/>
</svg>
