<svg width="40" height="37" viewBox="0 0 40 37" fill="none" xmlns="http://www.w3.org/2000/svg">
<path d="M19.9634 12.2102C16.3082 12.2102 13.3253 14.9405 13.3253 18.2862C13.3253 21.6319 16.3082 24.3622 19.9634 24.3622C23.6186 24.3622 26.6015 21.6319 26.6015 18.2862C26.6015 14.9405 23.6186 12.2102 19.9634 12.2102ZM39.8728 18.2862C39.8728 15.7701 39.8977 13.2768 39.7433 10.7652C39.5889 7.84803 38.8619 5.259 36.5313 3.12579C34.1958 0.988019 31.3722 0.327088 28.1851 0.185785C25.4362 0.044483 22.7123 0.0672738 19.9684 0.0672738C17.2195 0.0672738 14.4955 0.044483 11.7517 0.185785C8.56456 0.327088 5.73601 0.992577 3.40545 3.12579C1.06991 5.26356 0.347832 7.84803 0.193457 10.7652C0.039082 13.2813 0.0639812 15.7746 0.0639812 18.2862C0.0639812 20.7977 0.039082 23.2956 0.193457 25.8071C0.347832 28.7243 1.07489 31.3134 3.40545 33.4466C5.74099 35.5843 8.56456 36.2453 11.7517 36.3866C14.5005 36.5279 17.2245 36.5051 19.9684 36.5051C22.7172 36.5051 25.4412 36.5279 28.1851 36.3866C31.3722 36.2453 34.2007 35.5798 36.5313 33.4466C38.8669 31.3088 39.5889 28.7243 39.7433 25.8071C39.9027 23.2956 39.8728 20.8023 39.8728 18.2862ZM19.9634 27.6349C14.3113 27.6349 9.74976 23.4597 9.74976 18.2862C9.74976 13.1127 14.3113 8.93742 19.9634 8.93742C25.6155 8.93742 30.177 13.1127 30.177 18.2862C30.177 23.4597 25.6155 27.6349 19.9634 27.6349ZM30.5953 10.7379C29.2757 10.7379 28.21 9.76245 28.21 8.55454C28.21 7.34663 29.2757 6.37119 30.5953 6.37119C31.915 6.37119 32.9807 7.34663 32.9807 8.55454C32.9811 8.84136 32.9197 9.12544 32.7999 9.3905C32.6802 9.65556 32.5045 9.89639 32.2829 10.0992C32.0613 10.302 31.7982 10.4628 31.5086 10.5724C31.2191 10.682 30.9087 10.7382 30.5953 10.7379Z" fill="#C59407"/>
</svg>
