<svg width="76" height="61" viewBox="0 0 76 61" fill="none" xmlns="http://www.w3.org/2000/svg">
<path d="M22.8 19.0625C22.8 21.1713 21.1019 22.875 19 22.875C16.8981 22.875 15.2 21.1713 15.2 19.0625C15.2 16.9537 16.8981 15.25 19 15.25C21.1019 15.25 22.8 16.9537 22.8 19.0625ZM19 0C19.7481 0 20.425 0.441773 20.7338 1.1279L23.6787 7.73104L30.4119 5.15045C31.1125 4.88238 31.9081 5.05156 32.4306 5.58293C32.965 6.1143 33.1312 6.90897 32.87 7.6107L30.2931 14.3684L36.8719 17.323C37.5606 17.5256 38 18.3119 38 19.0625C38 19.8131 37.5606 20.4922 36.8719 20.802L30.2931 23.7566L32.87 30.5119C33.1312 31.2148 32.965 32.0131 32.4306 32.5373C31.9081 33.0734 31.1125 33.2402 30.4119 32.9781L23.6787 30.3928L20.7338 36.9932C20.425 37.6842 19.7481 38.125 19 38.125C18.2519 38.125 17.4681 37.6842 17.2662 36.9932L14.3212 30.3928L7.58575 32.9781C6.88631 33.2402 6.09425 33.0734 5.56462 32.5373C5.035 32.0131 4.86637 31.2148 5.13356 30.5119L7.70569 23.7566L1.12421 20.802C0.440325 20.4922 0 19.8131 0 19.0625C0 18.3119 0.440325 17.5256 1.12421 17.323L7.70569 14.3684L5.13356 7.6107C5.00273 7.26702 4.97381 6.89269 5.0503 6.53288C5.12679 6.17307 5.30541 5.84315 5.56462 5.58293C5.824 5.32286 6.15283 5.14365 6.51146 5.06691C6.87009 4.99017 7.24319 5.01918 7.58575 5.15045L14.3212 7.73104L17.2662 1.1279C17.4681 0.441773 18.2519 0 19 0ZM19 26.6875C23.1919 26.6875 26.6 23.2682 26.6 19.0625C26.6 14.8568 23.1919 11.4375 19 11.4375C14.8081 11.4375 11.4 14.8568 11.4 19.0625C11.4 23.2682 14.8081 26.6875 19 26.6875ZM59.85 53.375H72.2C74.3019 53.375 76 55.0787 76 57.1875C76 59.2963 74.3019 61 72.2 61H3.8C1.70169 61 0 59.2963 0 57.1875C0 55.0787 1.70169 53.375 3.8 53.375H54.15V32.4062C54.15 30.2975 52.4519 28.5938 50.35 28.5938C48.2481 28.5938 46.55 30.2975 46.55 32.4062V34.9559C48.3075 35.8732 49.4 37.708 49.4 40.2695C49.4 42.5689 46.8469 46.4768 43.7 49.5625C40.5531 46.4768 38 42.6047 38 40.2695C38 37.708 39.0925 35.8732 40.85 34.9559V32.299C40.85 27.1402 45.1012 22.7678 50.35 22.7678C51.7038 22.7678 52.9862 23.1609 54.15 23.6732V20.8615C54.15 15.7027 58.4012 11.3303 63.65 11.3303C68.8988 11.3303 73.15 15.7027 73.15 20.8615V27.3309C74.9075 28.2482 76 30.083 76 32.6445C76 34.9439 73.4469 38.8518 70.3 41.9375C67.1531 38.8518 64.6 34.9797 64.6 32.6445C64.6 30.083 65.6925 28.2482 67.45 27.3309V20.8615C67.45 18.86 65.7519 17.049 63.65 17.049C61.5481 17.049 59.85 18.86 59.85 20.8615V53.375Z" fill="#C59407"/>
</svg>
