<svg width="57" height="53" viewBox="0 0 57 53" fill="none" xmlns="http://www.w3.org/2000/svg">
<path d="M48.8125 22.4688C48.8106 20.2884 48.2241 18.1485 47.1141 16.2718C46.0041 14.3952 44.4113 12.8504 42.5014 11.7986C43.9408 10.2972 44.7462 8.29871 44.75 6.21875H40.6875C40.6864 7.29586 40.2581 8.32855 39.4964 9.09018C38.7348 9.85182 37.7021 10.2802 36.625 10.2812C33.4327 10.2855 30.3694 11.5412 28.0926 13.7789C25.8158 16.0165 24.5072 19.0576 24.4477 22.2494C21.8434 19.5968 20.3814 16.0298 20.375 12.3125C20.3697 10.5161 19.7685 8.77219 18.6658 7.35406C17.563 5.93593 16.021 4.92369 14.2812 4.47594V0.125H10.2188V4.47594C8.47902 4.92369 6.93698 5.93593 5.83423 7.35406C4.73148 8.77219 4.13034 10.5161 4.125 12.3125V22.4688H0.0625V24.5C0.0625 32.0421 3.05858 39.2753 8.39165 44.6083C13.7247 49.9414 20.9579 52.9375 28.5 52.9375C36.0421 52.9375 43.2753 49.9414 48.6083 44.6083C53.9414 39.2753 56.9375 32.0421 56.9375 24.5V22.4688H48.8125ZM36.625 14.3438C38.7791 14.3464 40.8441 15.2033 42.3673 16.7265C43.8904 18.2496 44.7473 20.3147 44.75 22.4688H28.5C28.5027 20.3147 29.3596 18.2496 30.8827 16.7265C32.4059 15.2033 34.4709 14.3464 36.625 14.3438ZM8.1875 12.3125C8.1875 11.2351 8.61551 10.2017 9.37738 9.43988C10.1392 8.67801 11.1726 8.25 12.25 8.25C13.3274 8.25 14.3608 8.67801 15.1226 9.43988C15.8845 10.2017 16.3125 11.2351 16.3125 12.3125C16.3206 15.9315 17.4037 19.4664 19.4244 22.4688H8.1875V12.3125ZM28.5 48.875C22.389 48.8674 16.5032 46.5679 12.0055 42.4309C7.50777 38.2939 4.72545 32.6203 4.20828 26.5312H52.7937C52.2766 32.6207 49.4939 38.2945 44.9958 42.4316C40.4977 46.5687 34.6113 48.8679 28.5 48.875Z" fill="#C59407"/>
</svg>
