<svg width="57" height="38" viewBox="0 0 57 38" fill="none" xmlns="http://www.w3.org/2000/svg">
<path d="M56.375 5.85381H48.4332C42.9309 2.01058 36.199 0.065918 28.3021 0.065918C20.4051 0.065918 13.6704 2.01058 8.17096 5.85381H0.229126C1.43065 7.06382 2.55076 9.71432 3.01677 11.731C1.21679 14.1901 0.239027 17.1802 0.229126 20.2558C0.229126 28.1987 6.52589 34.6607 14.2656 34.6607C17.8453 34.6543 21.2856 33.236 23.875 30.6994L28.3021 37.5187L32.7292 30.7023C35.3181 33.24 38.7584 34.6593 42.3385 34.6665C50.0782 34.6665 56.375 28.2045 56.375 20.2616C56.375 17.0579 55.3167 14.1251 53.5874 11.7339C54.0534 9.71721 55.1735 7.0667 56.375 5.85669V5.85381ZM14.2656 30.0541C9.00192 30.0541 4.7208 25.6606 4.7208 20.2587C4.7208 14.8569 9.00192 10.4634 14.2656 10.4634C19.5293 10.4634 23.8104 14.8569 23.8104 20.2587C23.8104 25.6606 19.5293 30.0541 14.2656 30.0541ZM28.3021 20.2587C28.2973 16.9355 27.1748 13.7158 25.1243 11.1437C23.0737 8.5716 20.2208 6.80483 17.0476 6.14191C20.4276 4.97511 24.1753 4.38739 28.3021 4.38739C32.4288 4.38739 36.1765 4.97511 39.5565 6.14479C36.3843 6.80751 33.5321 8.57344 31.4816 11.1443C29.4312 13.7152 28.3081 16.9336 28.3021 20.2558V20.2587ZM42.3385 30.0541C37.0749 30.0541 32.7937 25.6606 32.7937 20.2587C32.7937 14.8569 37.0749 10.4634 42.3385 10.4634C47.6022 10.4634 51.8833 14.8569 51.8833 20.2587C51.8833 25.6606 47.6022 30.0541 42.3385 30.0541ZM14.2656 14.0675C10.939 14.0675 8.22991 16.8448 8.22991 20.2616C8.22991 23.6784 10.939 26.4557 14.2656 26.4557C17.5922 26.4557 20.3013 23.6784 20.3013 20.2616C20.3013 16.8448 17.5922 14.0675 14.2656 14.0675ZM14.2656 22.1083C13.7816 22.1083 13.3175 21.911 12.9753 21.5598C12.6331 21.2086 12.4409 20.7323 12.4409 20.2357C12.4409 19.739 12.6331 19.2627 12.9753 18.9115C13.3175 18.5603 13.7816 18.363 14.2656 18.363C14.7495 18.363 15.2137 18.5603 15.5559 18.9115C15.8981 19.2627 16.0903 19.739 16.0903 20.2357C16.0903 20.7323 15.8981 21.2086 15.5559 21.5598C15.2137 21.911 14.7495 22.1083 14.2656 22.1083ZM42.3385 14.0675C39.0119 14.0675 36.3028 16.8448 36.3028 20.2616C36.3028 23.6784 39.0119 26.4557 42.3385 26.4557C45.6652 26.4557 48.3742 23.6784 48.3742 20.2616C48.3742 16.8448 45.6652 14.0675 42.3385 14.0675ZM42.3385 22.1083C41.8546 22.1083 41.3904 21.911 41.0482 21.5598C40.706 21.2086 40.5138 20.7323 40.5138 20.2357C40.5138 19.739 40.706 19.2627 41.0482 18.9115C41.3904 18.5603 41.8546 18.363 42.3385 18.363C42.8225 18.363 43.2866 18.5603 43.6288 18.9115C43.971 19.2627 44.1633 19.739 44.1633 20.2357C44.1633 20.7323 43.971 21.2086 43.6288 21.5598C43.2866 21.911 42.8225 22.1083 42.3385 22.1083Z" fill="#C59407"/>
</svg>
