<svg width="40" height="64" viewBox="0 0 40 64" fill="none" xmlns="http://www.w3.org/2000/svg">
<path d="M39.8333 31.9997C39.8333 28.0613 37.1417 24.8313 33.5433 23.8397C34.0651 22.5504 34.2621 21.1528 34.1171 19.7695C33.972 18.3863 33.4893 17.0599 32.7113 15.907C31.9334 14.7541 30.8841 13.81 29.6557 13.1577C28.4273 12.5055 27.0575 12.165 25.6667 12.1663C24.4483 12.1663 23.315 12.4497 22.295 12.903C22.8333 9.87134 23.9383 5.33801 26.8 4.23301L24.5333 0.833008C19.7167 3.01467 18.3 9.58801 17.9033 12.988C16.7983 12.478 15.6083 12.1663 14.3333 12.1663C12.9425 12.165 11.5727 12.5055 10.3443 13.1577C9.11592 13.81 8.06662 14.7541 7.28869 15.907C6.51076 17.0599 6.02802 18.3863 5.88295 19.7695C5.73786 21.1528 5.93488 22.5504 6.45667 23.8397C2.83 24.803 0.166672 28.0897 0.166672 31.9997C0.166672 35.938 2.85834 39.1963 6.48501 40.1597C6.08834 41.123 5.83334 42.1997 5.83334 43.333C5.83334 47.2713 8.49667 50.5297 12.1233 51.493C11.6016 52.7822 11.4045 54.1799 11.5496 55.5632C11.6947 56.9464 12.1774 58.2728 12.9554 59.4257C13.7333 60.5786 14.7826 61.5227 16.011 62.175C17.2394 62.8272 18.6092 63.1677 20 63.1663C21.3908 63.1677 22.7607 62.8272 23.989 62.175C25.2174 61.5227 26.2667 60.5786 27.0447 59.4257C27.8226 58.2728 28.3053 56.9464 28.4504 55.5632C28.5955 54.1799 28.3985 52.7822 27.8767 51.493C29.6801 51.0203 31.2759 49.9629 32.4141 48.4863C33.5523 47.0097 34.1687 45.1974 34.1667 43.333C34.1667 42.1997 33.94 41.1513 33.515 40.1597C35.3218 39.6888 36.9217 38.6328 38.0648 37.1565C39.2079 35.6802 39.8298 33.8668 39.8333 31.9997ZM32.2117 25.993V26.0497H32.1833L32.2117 25.993ZM25.6667 16.4163C28.0183 16.4163 29.9167 18.3147 29.9167 20.6663C29.9167 23.018 28.0183 24.9163 25.6667 24.9163C23.315 24.9163 21.4167 23.018 21.4167 20.6663C21.4167 18.3147 23.315 16.4163 25.6667 16.4163ZM24.25 31.9997C24.25 34.3513 22.3517 36.2497 20 36.2497C17.6483 36.2497 15.75 34.3513 15.75 31.9997C15.75 29.648 17.6483 27.7497 20 27.7497C22.3517 27.7497 24.25 29.648 24.25 31.9997ZM14.3333 16.4163C16.685 16.4163 18.5833 18.3147 18.5833 20.6663C18.5833 23.018 16.685 24.9163 14.3333 24.9163C11.9817 24.9163 10.0833 23.018 10.0833 20.6663C10.0833 18.3147 11.9817 16.4163 14.3333 16.4163ZM4.41667 31.9997C4.41667 29.648 6.31501 27.7497 8.66667 27.7497C11.0183 27.7497 12.9167 29.648 12.9167 31.9997C12.9167 34.3513 11.0183 36.2497 8.66667 36.2497C6.31501 36.2497 4.41667 34.3513 4.41667 31.9997ZM10.0833 43.333C10.0833 40.9813 11.9817 39.083 14.3333 39.083C16.685 39.083 18.5833 40.9813 18.5833 43.333C18.5833 45.6847 16.685 47.583 14.3333 47.583C11.9817 47.583 10.0833 45.6847 10.0833 43.333ZM20 58.9163C17.6483 58.9163 15.75 57.018 15.75 54.6663C15.75 52.3147 17.6483 50.4163 20 50.4163C22.3517 50.4163 24.25 52.3147 24.25 54.6663C24.25 57.018 22.3517 58.9163 20 58.9163ZM25.6667 47.583C23.315 47.583 21.4167 45.6847 21.4167 43.333C21.4167 40.9813 23.315 39.083 25.6667 39.083C28.0183 39.083 29.9167 40.9813 29.9167 43.333C29.9167 45.6847 28.0183 47.583 25.6667 47.583ZM31.3333 36.2497C28.9817 36.2497 27.0833 34.3513 27.0833 31.9997C27.0833 29.648 28.9817 27.7497 31.3333 27.7497C33.685 27.7497 35.5833 29.648 35.5833 31.9997C35.5833 34.3513 33.685 36.2497 31.3333 36.2497Z" fill="#C59407"/>
</svg>
